<svg width="23" height="32" viewBox="0 0 23 32" fill="none" xmlns="http://www.w3.org/2000/svg">
<path d="M14.8307 11.2366L11.702 14.1335L8.79773 8.30558L10.2981 4.95459C10.6773 4.28616 11.2974 4.27733 11.6766 4.95459L14.8307 11.2366Z" fill="#FFA000"/>
<path d="M11.7033 14.1323L0 24.9571L8.79906 8.30557L11.7033 14.1323Z" fill="#F57F17"/>
<path d="M18.2614 6.80602C18.8219 6.27506 19.399 6.45415 19.5448 7.20834L22.5873 24.8108L12.496 30.8356C12.1421 31.0323 11.2036 31.1092 11.2036 31.1092C11.2036 31.1092 10.3501 31.0058 10.0229 30.8267L0 24.9571L18.2614 6.80602Z" fill="#FFCA28"/>
<path d="M8.79904 8.30558L0 24.9571L3.92139 0.61861C4.06851 -0.135583 4.49844 -0.212516 4.88652 0.455916L8.79904 8.30558Z" fill="#FFA000"/>
</svg>
