<svg width="32" height="31" viewBox="0 0 32 31" fill="none" xmlns="http://www.w3.org/2000/svg">
<path d="M15.5297 0C7.58767 0 8.08356 3.42502 8.08356 3.42502L8.09238 6.97344H15.6714V8.03877H5.08213C5.08213 8.03877 0 7.4656 0 15.4346C0 23.4038 4.43581 23.1211 4.43581 23.1211H7.08309V19.4231C7.08309 19.4231 6.94037 15.012 11.4481 15.012H18.9651C18.9651 15.012 23.1884 15.0798 23.1884 10.953V4.12951C23.1884 4.12951 23.8298 0 15.5297 0ZM11.3507 2.38624C11.5298 2.38608 11.7072 2.42104 11.8727 2.48913C12.0382 2.55721 12.1885 2.65708 12.3152 2.78301C12.4418 2.90895 12.5422 3.05848 12.6107 3.22306C12.6792 3.38763 12.7143 3.56402 12.7142 3.74212C12.7143 3.92022 12.6792 4.09661 12.6107 4.26118C12.5422 4.42575 12.4418 4.57529 12.3152 4.70123C12.1885 4.82716 12.0382 4.92703 11.8727 4.99511C11.7072 5.06319 11.5298 5.09815 11.3507 5.09799C11.1716 5.09815 10.9942 5.06319 10.8287 4.99511C10.6632 4.92703 10.5129 4.82716 10.3862 4.70123C10.2596 4.57529 10.1592 4.42575 10.0907 4.26118C10.0222 4.09661 9.98709 3.92022 9.98725 3.74212C9.98709 3.56402 10.0222 3.38763 10.0907 3.22306C10.1592 3.05848 10.2596 2.90895 10.3862 2.78301C10.5129 2.65708 10.6632 2.55721 10.8287 2.48913C10.9942 2.42104 11.1716 2.38608 11.3507 2.38624Z" fill="url(#paint0_linear_1_6347)"/>
<path d="M15.7553 30.9493C23.6974 30.9493 23.2015 27.5243 23.2015 27.5243L23.1927 23.976H15.6136V22.9107H26.2028C26.2028 22.9107 31.2849 23.4838 31.2849 15.5146C31.2849 7.54552 26.8491 7.82814 26.8491 7.82814H24.2018V11.526C24.2018 11.526 24.3446 15.9372 19.8368 15.9372H12.3198C12.3198 15.9372 8.09657 15.8694 8.09657 19.9963V26.8199C8.09657 26.8199 7.45527 30.9493 15.7552 30.9493H15.7553ZM19.9343 28.5633C19.7552 28.5635 19.5779 28.5285 19.4124 28.4604C19.2469 28.3924 19.0965 28.2925 18.9699 28.1666C18.8432 28.0406 18.7428 27.8911 18.6744 27.7265C18.6059 27.5619 18.5707 27.3856 18.5709 27.2075C18.5707 27.0293 18.6059 26.8529 18.6743 26.6884C18.7428 26.5238 18.8432 26.3742 18.9698 26.2483C19.0965 26.1223 19.2469 26.0224 19.4124 25.9543C19.5779 25.8863 19.7552 25.8513 19.9343 25.8515C20.1134 25.8513 20.2908 25.8863 20.4563 25.9543C20.6218 26.0224 20.7722 26.1223 20.8988 26.2482C21.0254 26.3742 21.1259 26.5237 21.1943 26.6883C21.2628 26.8528 21.298 27.0292 21.2978 27.2073C21.298 27.3854 21.2628 27.5618 21.1943 27.7264C21.1259 27.891 21.0254 28.0405 20.8988 28.1664C20.7722 28.2924 20.6218 28.3922 20.4563 28.4603C20.2908 28.5284 20.1134 28.5634 19.9343 28.5632V28.5633Z" fill="url(#paint1_linear_1_6347)"/>
<defs>
<linearGradient id="paint0_linear_1_6347" x1="3.00647" y1="2.7837" x2="18.4248" y2="18.1335" gradientUnits="userSpaceOnUse">
<stop stop-color="#387EB8"/>
<stop offset="1" stop-color="#366994"/>
</linearGradient>
<linearGradient id="paint1_linear_1_6347" x1="12.5227" y1="12.5853" x2="29.0845" y2="28.3291" gradientUnits="userSpaceOnUse">
<stop stop-color="#FFE052"/>
<stop offset="1" stop-color="#FFC331"/>
</linearGradient>
</defs>
</svg>
